<svg width="31" height="31" viewBox="0 0 31 31" fill="none" xmlns="http://www.w3.org/2000/svg">
<path d="M28.7405 6.67253H20.5347L18.8777 3.88886C18.7156 3.6167 18.4224 3.44995 18.1056 3.44995H12.8942C12.5774 3.44995 12.2841 3.6167 12.1221 3.88886L10.4651 6.67253H7.77239V6.05901C7.77239 5.5628 7.3701 5.1605 6.87389 5.1605H3.54932C3.05301 5.1605 2.65082 5.5628 2.65082 6.05901V6.67253H2.25942C1.01148 6.67253 0 7.68412 0 8.93185V25.2905C0 26.5383 1.01148 27.5499 2.25932 27.5499H28.7405C29.9883 27.5499 30.9999 26.5383 30.9999 25.2905V8.93185C31 7.68412 29.9883 6.67253 28.7405 6.67253ZM15.4999 23.5423C11.9481 23.5423 9.06875 20.663 9.06875 17.1111C9.06875 13.5593 11.9481 10.6799 15.4999 10.6799C19.0517 10.6799 21.931 13.5593 21.931 17.1111C21.931 20.663 19.0517 23.5423 15.4999 23.5423ZM27.3308 11.3306H24.5154C24.0192 11.3306 23.6169 10.9283 23.6169 10.432C23.6169 9.93567 24.0192 9.53338 24.5154 9.53338H27.3308C27.8272 9.53338 28.2294 9.93567 28.2294 10.432C28.2294 10.9283 27.8271 11.3306 27.3308 11.3306Z" fill="#BABABA"/>
<path d="M15.4999 21.6038C17.9812 21.6038 19.9927 19.5923 19.9927 17.111C19.9927 14.6297 17.9812 12.6182 15.4999 12.6182C13.0186 12.6182 11.0071 14.6297 11.0071 17.111C11.0071 19.5923 13.0186 21.6038 15.4999 21.6038Z" fill="#BABABA"/>
</svg>
