<svg width="32" height="32" viewBox="0 0 32 32" fill="none" xmlns="http://www.w3.org/2000/svg">
<g clip-path="url(#clip0_2661_13305)">
<path d="M27.9316 18.7356C27.5651 13.9631 25.3431 10.9724 23.3828 8.33331C21.5677 5.89006 20 3.78018 20 0.667809C20 0.417809 19.86 0.189309 19.638 0.074746C19.4153 -0.040504 19.1478 -0.021629 18.9453 0.125496C16.0013 2.23212 13.5449 5.78268 12.6869 9.17043C12.0912 11.529 12.0124 14.1805 12.0013 15.9317C9.28256 15.351 8.66669 11.2842 8.66019 11.2399C8.62956 11.029 8.50069 10.8454 8.31319 10.7452C8.12375 10.6462 7.90106 10.6391 7.709 10.7341C7.56644 10.8031 4.20962 12.5087 4.01431 19.3188C4.00062 19.5454 4 19.7726 4 19.9998C4 26.6159 9.38344 31.999 16 31.999C16.0091 31.9996 16.0189 32.0009 16.0267 31.999C16.0293 31.999 16.0319 31.999 16.0351 31.999C22.6354 31.9801 28 26.6042 28 19.9998C28 19.6671 27.9316 18.7356 27.9316 18.7356ZM16 30.6657C13.7943 30.6657 12 28.7544 12 26.405C12 26.3249 11.9994 26.2442 12.0052 26.1452C12.0319 25.1544 12.2201 24.4781 12.4264 24.0282C12.8132 24.8589 13.5046 25.6225 14.6276 25.6225C14.9961 25.6225 15.2943 25.3243 15.2943 24.9559C15.2943 24.0067 15.3139 22.9117 15.5502 21.9235C15.7605 21.0472 16.2631 20.115 16.8998 19.3677C17.183 20.3377 17.7351 21.1227 18.2742 21.889C19.0457 22.9852 19.8432 24.1187 19.9832 26.0515C19.9916 26.1661 20.0001 26.2813 20.0001 26.405C20 28.7544 18.2057 30.6657 16 30.6657Z" fill="#BABABA"/>
</g>
<defs>
<clipPath id="clip0_2661_13305">
<rect width="32" height="32" fill="white"/>
</clipPath>
</defs>
</svg>
