<svg width="29" height="31" viewBox="0 0 29 31" fill="none" xmlns="http://www.w3.org/2000/svg">
<path d="M19.6441 27.2048C19.7275 26.8062 19.8049 26.4538 19.8883 26.0956C19.9003 26.0436 19.9539 25.9685 20.0015 25.957C20.9547 25.697 21.7351 25.1424 22.4381 24.5011C23.0576 23.935 23.6116 23.2995 24.1597 22.6698C24.5469 22.2249 24.4695 21.6877 24.0346 21.3699C23.6116 21.0637 23.0695 21.1735 22.7121 21.6357C21.9615 22.612 21.1036 23.467 20.0015 24.0736C19.9003 24.1314 19.793 24.1776 19.662 24.2412C19.6441 24.2123 19.6262 24.1892 19.6143 24.1661C18.9828 22.9644 17.9284 22.404 16.5821 22.3636C15.194 22.3289 13.8 22.3289 12.412 22.3636C10.1065 22.4156 8.66484 24.2354 9.17121 26.4249C9.2427 26.7253 9.33801 27.02 9.39758 27.3204C9.41546 27.3955 9.38567 27.5226 9.33205 27.563C7.4436 28.9033 5.50153 30.1512 3.21989 30.7866C2.61821 30.9542 2.00461 31.0408 1.33739 30.9831C1.49228 30.7231 1.64121 30.4862 1.77823 30.2494C2.87437 28.3545 3.40457 26.3325 3.18415 24.1487C3.13649 23.6634 3.0233 23.1782 2.91011 22.7044C2.86245 22.508 2.75522 22.3058 2.63012 22.1383C-3.05908 14.3103 0.914426 3.27023 10.3865 0.578098C18.685 -1.78474 27.2337 3.33378 28.7706 11.5893C29.98 18.0885 26.2984 24.582 19.9837 27.0777C19.8824 27.1182 19.7811 27.1528 19.6441 27.2048ZM14.2349 6.99647C13.7464 6.99647 13.2758 6.99647 12.7992 6.99647C12.5013 6.99647 12.2928 7.11779 12.1498 7.37776C12.1081 7.45286 12.0009 7.51641 11.9116 7.53374C11.298 7.63773 10.6724 7.70128 10.0648 7.83415C7.20531 8.45231 5.43004 10.1392 4.76283 12.9122C4.48283 14.0734 4.38156 15.252 4.41135 16.4363C4.49475 19.3422 6.9968 21.7223 10.0052 21.7339C12.9958 21.7512 15.9804 21.7454 18.9709 21.7339C21.6219 21.7223 23.9572 19.8852 24.4457 17.3548C24.7852 15.5928 24.5469 13.8424 23.9869 12.1439C23.3078 10.0815 21.89 8.70072 19.7513 8.07102C18.8935 7.81682 17.988 7.71861 17.1063 7.53952C17.011 7.52219 16.8799 7.48175 16.8501 7.41242C16.6952 7.09468 16.445 6.9907 16.1055 7.00225C15.6587 7.0138 15.2178 7.00225 14.7532 7.00225C14.7532 6.4592 14.7532 5.93926 14.7532 5.4251C15.48 5.10158 15.7838 4.64519 15.6766 4.05592C15.5753 3.5302 15.1106 3.13158 14.5566 3.09692C14.0085 3.06803 13.4902 3.41466 13.3473 3.9346C13.1507 4.66252 13.526 5.1709 14.2349 5.43665C14.2349 5.94504 14.2349 6.45342 14.2349 6.99647Z" fill="#BABABA"/>
<path d="M14.5878 11.7047C15.8984 11.7047 17.209 11.6989 18.5196 11.7047C19.6038 11.7105 20.6583 11.878 21.5876 12.4788C22.5288 13.0912 23.0173 13.9231 22.8446 15.0554C22.7314 15.8122 22.3203 16.3842 21.5935 16.6499C21.0336 16.8521 20.4319 17.0081 19.8362 17.0312C18.4004 17.089 16.9588 17.0601 15.5171 17.0543C15.4218 17.0543 15.2908 16.9619 15.2371 16.8752C15.1239 16.7077 15.0584 16.5113 14.9512 16.338C14.7248 15.9682 14.2661 15.974 14.0397 16.3495C14.0219 16.3726 14.0099 16.4015 14.004 16.4304C13.861 16.9734 13.4976 17.1063 12.9317 17.0832C11.8236 17.0312 10.7096 17.089 9.5956 17.0543C9.0654 17.037 8.52329 16.9619 8.01692 16.8232C6.00336 16.286 5.92592 14.1022 6.93865 13.0335C7.72501 12.2073 8.73775 11.8145 9.85176 11.7683C11.4245 11.7047 13.0032 11.7509 14.5818 11.7509C14.5878 11.7336 14.5878 11.722 14.5878 11.7047ZM19.2762 14.368C19.2762 13.6343 18.6626 13.045 17.912 13.045C17.1554 13.045 16.5477 13.6343 16.5418 14.3622C16.5358 15.1074 17.1494 15.7025 17.9179 15.6967C18.6804 15.6967 19.2821 15.1017 19.2762 14.368ZM11.0849 15.6967C11.8415 15.6967 12.4491 15.1074 12.4491 14.3795C12.4491 13.6458 11.8474 13.0566 11.0968 13.045C10.3343 13.0392 9.71474 13.6343 9.7207 14.3795C9.7207 15.1132 10.3283 15.7025 11.0849 15.6967Z" fill="#BABABA"/>
<path d="M14.5207 20.1434C13.6152 20.1261 12.8408 19.9412 12.1795 19.4155C12.0723 19.3288 11.977 19.2306 11.8936 19.1266C11.7744 18.9764 11.7625 18.7916 11.9353 18.6991C12.0425 18.6413 12.2749 18.6471 12.3523 18.7222C13.2816 19.6119 14.3956 19.6754 15.5633 19.3577C15.9267 19.2595 16.2543 18.9995 16.5641 18.7742C16.7428 18.6471 16.8977 18.5374 17.0824 18.7107C17.2671 18.884 17.1777 19.0631 17.0288 19.2133C16.4867 19.7794 15.7837 20.0163 15.0212 20.1145C14.8305 20.1376 14.6399 20.1376 14.5207 20.1434Z" fill="#BABABA"/>
</svg>
