<svg width="34" height="34" viewBox="0 0 34 34" fill="none" xmlns="http://www.w3.org/2000/svg">
<path d="M2.23215 12.4572C2.41087 13.07 2.6589 13.6609 2.97257 14.2153L2.07896 15.3423C1.78717 15.7107 1.82 16.2359 2.14826 16.5678L3.68745 18.107C4.01936 18.4389 4.54458 18.468 4.91297 18.1763L6.03271 17.2899C6.60899 17.6219 7.22175 17.8808 7.86004 18.0632L8.02782 19.5039C8.08253 19.9708 8.47645 20.3209 8.94331 20.3209H11.1208C11.5877 20.3209 11.9816 19.9707 12.0363 19.5039L12.1968 18.1143C12.8825 17.9355 13.539 17.6693 14.1554 17.3228L15.2387 18.1799C15.6071 18.4717 16.1323 18.4389 16.4642 18.1106L18.0034 16.5714C18.3353 16.2395 18.3645 15.7143 18.0727 15.3459L17.2301 14.2772C17.5803 13.6717 17.8538 13.0262 18.0362 12.3514L19.3347 12.2019C19.8016 12.1472 20.1517 11.7532 20.1517 11.2864V9.1089C20.1517 8.64204 19.8015 8.24812 19.3347 8.19341L18.0544 8.04387C17.8793 7.3764 17.6168 6.73811 17.2812 6.13995L18.0691 5.14421C18.3609 4.77583 18.328 4.25061 17.9998 3.9187L16.4642 2.38316C16.1323 2.05125 15.6071 2.02207 15.2387 2.31386L14.2722 3.0798C13.6448 2.71142 12.9737 2.43057 12.2697 2.24091L12.1239 0.989862C12.0691 0.522999 11.6752 0.172852 11.2084 0.172852H9.03088C8.56402 0.172852 8.17011 0.522999 8.11539 0.989862L7.9695 2.24091C7.24732 2.43422 6.55797 2.72601 5.91603 3.10898L4.91301 2.31386C4.54462 2.02207 4.0194 2.05489 3.68749 2.38316L2.1483 3.92235C1.81639 4.25426 1.78721 4.77948 2.079 5.14786L2.91789 6.20925C2.58234 6.81471 2.32702 7.46029 2.15924 8.13141L0.817011 8.2846C0.350147 8.33931 0 8.73322 0 9.20009V11.3776C0 11.8444 0.350147 12.2383 0.817011 12.2931L2.23215 12.4572ZM10.1214 6.56672C12.1056 6.56672 13.7214 8.18251 13.7214 10.1667C13.7214 12.1508 12.1056 13.7666 10.1214 13.7666C8.13728 13.7666 6.52146 12.1508 6.52146 10.1667C6.52146 8.18251 8.13724 6.56672 10.1214 6.56672Z" fill="#BABABA"/>
<path d="M31.6463 12.9908L30.4974 12.0206C30.1437 11.7216 29.622 11.7361 29.2865 12.0535L28.6519 12.648C28.1158 12.389 27.5468 12.2067 26.9595 12.1009L26.7809 11.2255C26.6897 10.7732 26.2702 10.4596 25.8106 10.496L24.3115 10.6237C23.8519 10.6638 23.4908 11.0395 23.4763 11.5027L23.4471 12.3927C22.8708 12.6006 22.3273 12.8851 21.8313 13.2425L21.0727 12.7392C20.686 12.4839 20.1717 12.5568 19.8727 12.9106L18.9025 14.0668C18.6034 14.4206 18.618 14.9422 18.9352 15.2777L19.5991 15.9853C19.3693 16.5032 19.2052 17.0467 19.1104 17.6047L18.162 17.798C17.7098 17.8892 17.3961 18.3087 17.4326 18.7683L17.5602 20.2673C17.6003 20.7269 17.976 21.088 18.4392 21.1026L19.4642 21.1354C19.6502 21.6241 19.8946 22.0874 20.19 22.5214L19.6174 23.3858C19.3621 23.7724 19.435 24.2867 19.7888 24.5858L20.9377 25.556C21.2915 25.8551 21.8131 25.8405 22.1487 25.5232L22.9 24.8192C23.3924 25.049 23.9103 25.2204 24.4428 25.3226L24.6507 26.3511C24.7419 26.8034 25.1614 27.1171 25.6209 27.0806L27.12 26.9529C27.5796 26.9128 27.9407 26.5372 27.9553 26.0739L27.9881 25.0672C28.5352 24.8739 29.0531 24.6113 29.5309 24.2867L30.3589 24.8338C30.7455 25.0891 31.2597 25.0162 31.5589 24.6624L32.5291 23.5135C32.8281 23.1597 32.8135 22.6381 32.4962 22.3025L31.8287 21.595C32.0731 21.0771 32.2519 20.53 32.354 19.9682L33.2658 19.7822C33.7181 19.691 34.0317 19.2716 33.9953 18.812L33.8676 17.3129C33.8275 16.8533 33.4518 16.4922 32.9886 16.4777L32.0731 16.4485C31.8834 15.916 31.6281 15.4127 31.3108 14.9458L31.8105 14.1944C32.0731 13.8079 32.0002 13.2899 31.6463 12.9908ZM25.9966 21.657C24.3772 21.7956 22.9474 20.5883 22.8124 18.9689C22.6738 17.3495 23.8812 15.9196 25.5005 15.7847C27.1199 15.6461 28.5498 16.8534 28.6847 18.4728C28.8233 20.0923 27.616 21.522 25.9966 21.657Z" fill="#BABABA"/>
<path d="M7.47699 25.6935C7.01742 25.7409 6.66363 26.1275 6.65998 26.5908L6.64904 27.5136C6.64175 27.9768 6.9846 28.3707 7.44417 28.4291L8.12258 28.5166C8.23564 28.9288 8.39613 29.3227 8.60403 29.6947L8.16634 30.2345C7.87456 30.5956 7.89644 31.1135 8.22106 31.4455L8.86664 32.1056C9.19126 32.4375 9.70918 32.474 10.0776 32.1895L10.621 31.7701C11.004 31.9962 11.4089 32.175 11.8319 32.2989L11.9049 32.9992C11.9523 33.4588 12.3389 33.8126 12.8021 33.8162L13.7249 33.8272C14.1881 33.8345 14.5821 33.4916 14.6404 33.0321L14.7243 32.3682C15.1839 32.2551 15.6216 32.0837 16.0374 31.8576L16.548 32.2698C16.9091 32.5615 17.427 32.5397 17.759 32.215L18.4191 31.5695C18.751 31.2449 18.7875 30.7269 18.5031 30.3585L18.1127 29.8515C18.3534 29.4503 18.5395 29.0236 18.6672 28.5749L19.2726 28.5129C19.7322 28.4655 20.0859 28.0789 20.0896 27.6157L20.1005 26.6929C20.1079 26.2297 19.765 25.8357 19.3054 25.7774L18.7145 25.7008C18.6015 25.2558 18.4337 24.8254 18.2149 24.4242L18.5833 23.9719C18.8751 23.6108 18.8532 23.0929 18.5286 22.761L17.883 22.1008C17.5584 21.7689 17.0404 21.7324 16.672 22.0169L16.2307 22.3561C15.8149 22.1045 15.3699 21.9112 14.9031 21.7799L14.8447 21.2072C14.7973 20.7476 14.4107 20.3939 13.9474 20.3902L13.0246 20.3793C12.5614 20.372 12.1675 20.7148 12.1091 21.1744L12.0362 21.7434C11.5547 21.8674 11.0915 22.0571 10.6611 22.3051L10.2052 21.933C9.84413 21.6413 9.32617 21.6632 8.99426 21.9878L8.33044 22.637C7.99853 22.9616 7.96206 23.4796 8.24655 23.8479L8.63682 24.3513C8.41068 24.7525 8.23196 25.1792 8.11524 25.6279L7.47699 25.6935ZM13.4331 24.6503C14.7571 24.6649 15.8185 25.7555 15.8039 27.0795C15.7893 28.4035 14.6987 29.4649 13.3747 29.4503C12.0508 29.4357 10.9894 28.3452 11.004 27.0211C11.0186 25.6972 12.1091 24.6358 13.4331 24.6503Z" fill="#BABABA"/>
</svg>
