<svg width="34" height="34" viewBox="0 0 34 34" fill="none" xmlns="http://www.w3.org/2000/svg">
<g clip-path="url(#clip0_2661_13291)">
<path d="M9.99219 17.0077C9.99219 20.878 13.1299 24.0154 16.9999 24.0154C20.8702 24.0154 24.0076 20.878 24.0076 17.0077C24.0076 13.1377 20.8702 10 16.9999 10C13.1316 10.0044 9.99664 13.1394 9.99219 17.0077ZM13.496 17.7085H12.0945V16.3069H13.496V17.7085ZM20.5037 16.3069H21.9053V17.7085H20.5037V16.3069ZM19.1022 15.5039V15.6062H17.7007V15.5039C17.7003 15.1737 17.4327 14.9061 17.1022 14.9054H16.8976C16.6201 14.9057 16.3792 15.0967 16.3155 15.367C16.2519 15.637 16.3826 15.9155 16.6307 16.0394L17.9966 16.7227C18.7255 17.0854 19.1607 17.8549 19.0954 18.6662C19.0304 19.4779 18.4781 20.1684 17.7007 20.4099V21.2123H16.2991V20.4099C15.468 20.1506 14.901 19.3824 14.8976 18.5116V18.4093H16.2991V18.5116C16.2998 18.8421 16.5674 19.1097 16.8976 19.11H17.1022C17.3797 19.11 17.6209 18.9191 17.6846 18.6488C17.7482 18.3788 17.6175 18.1003 17.3694 17.9764L16.0035 17.2931C15.2747 16.9304 14.8394 16.1608 14.9044 15.3492C14.9698 14.5379 15.5217 13.8474 16.2991 13.6055V12.8031H17.7007V13.6055C18.5321 13.8652 19.0991 14.6334 19.1022 15.5039Z" fill="#BABABA"/>
<path d="M16.9999 5.79211C19.3372 5.7928 21.6154 6.52813 23.5114 7.89443H29.9867L32.9075 4.39057L29.9867 0.886719H4.0876L3.27049 2.28826H9.29137V3.6898H2.4527L1.6349 5.09134H7.88983V6.49289H0.817794L0 7.89443H10.4883C12.3846 6.52813 14.6628 5.7928 16.9999 5.79211Z" fill="#BABABA"/>
<path d="M33.1834 27.5178L34.0012 26.1162H23.5126C19.6241 28.9196 14.3783 28.9196 10.4895 26.1162H4.01454L1.09375 29.6201L4.01317 33.1239H29.9136L30.7307 31.7224H24.7095V30.3208H31.5485L32.3663 28.9193H26.1111V27.5178H33.1834Z" fill="#BABABA"/>
<path d="M7.1875 17.0051C7.1875 22.4238 11.58 26.8159 16.9983 26.8159C22.4169 26.8159 26.8091 22.4238 26.8091 17.0051C26.8091 11.5868 22.4169 7.19434 16.9983 7.19434C11.5824 7.20015 7.19332 11.5892 7.1875 17.0051ZM25.4075 17.0051C25.4075 21.6494 21.6426 25.4144 16.9983 25.4144C12.354 25.4144 8.58904 21.6494 8.58904 17.0051C8.58904 12.3608 12.354 8.59588 16.9983 8.59588C21.6406 8.60101 25.4028 12.3632 25.4075 17.0051Z" fill="#BABABA"/>
</g>
<defs>
<clipPath id="clip0_2661_13291">
<rect width="34" height="34" fill="white"/>
</clipPath>
</defs>
</svg>
